# Blender 3.6.2
# www.blender.org
mtllib fish.mtl
o fish.001
v 0.567157 -0.312129 -0.449208
v 0.013379 0.026455 1.795354
v 0.216536 -0.113666 -0.166767
v 0.042059 -0.102118 0.061528
v 0.039443 0.077993 0.537795
v 0.134181 -0.045845 -0.785109
v 0.060338 -0.014750 0.520923
v 0.028880 0.014205 1.158360
v 0.571962 -0.298943 0.086032
v 0.785975 -0.481566 -0.235016
v 0.558175 -0.327185 -0.428404
v 0.045978 0.090917 -0.906688
v 0.130506 -0.045205 0.577897
v 0.046056 0.032853 1.159742
v 0.194549 -0.000017 -0.828158
v 0.244916 -0.093682 -0.737753
v 0.374346 -0.208529 -0.201614
v 0.310533 -0.170982 -0.652129
v 0.546593 -0.349370 -0.175568
v 0.055655 0.110053 -0.771274
v 0.070528 -0.132999 -0.441512
v -0.043976 -0.086961 -0.454865
v 0.333100 -0.166286 -0.666108
v 0.126321 -0.053747 0.583422
v -0.049600 -0.098082 -0.175569
v 0.047754 -0.128373 -0.175569
v -0.006318 -0.012495 0.553535
v 0.154862 -0.052918 -0.448265
v 0.103955 -0.107482 -0.635329
v 0.557855 -0.327133 -0.207998
v 0.075535 0.009159 0.555945
v -0.031322 -0.061938 -0.635329
v 0.085490 0.066552 -0.497673
v 0.007540 0.014908 -0.865121
v 0.005518 0.010911 1.159039
v 0.389537 -0.191274 0.281742
v -0.039736 -0.078578 0.062838
v 0.049226 0.097339 -0.502127
v 0.023052 0.045582 1.159787
v 0.233843 -0.178820 0.063994
v 0.270034 -0.215709 -0.427539
v 0.246138 -0.212959 -0.175568
v 0.381123 -0.196751 0.280759
v 0.225085 -0.110350 -0.720752
v 0.107227 -0.022602 -0.183286
v 0.071127 0.065227 -0.193751
v 0.045403 0.089778 -0.198260
v 0.146947 -0.063244 0.281604
v 0.071679 0.030243 0.280179
v 0.050367 0.072001 0.279382
v 0.041220 0.081508 0.279256
v 0.206722 -0.135293 0.284099
v 0.049523 -0.065053 0.285256
v -0.025935 -0.051285 0.288302
v 0.259279 -0.132690 -0.373383
v 0.568020 -0.299904 0.083333
v 0.770185 -0.472847 -0.231095
v -0.587543 0.271814 -0.449208
v -0.219887 0.107038 -0.166767
v -0.107176 -0.026649 0.061528
v -0.116450 0.080903 -0.785109
v -0.047640 0.039856 0.520923
v -0.005676 0.031680 1.158360
v -0.579770 0.283501 0.086032
v -0.853704 0.347635 -0.235016
v -0.594346 0.255657 -0.428404
v -0.113757 0.078322 0.577897
v -0.000835 0.056565 1.159742
v -0.115318 0.156686 -0.828158
v -0.220612 0.141739 -0.737753
v -0.389824 0.177919 -0.201614
v -0.321762 0.148776 -0.652129
v -0.605350 0.233180 -0.175568
v -0.148923 -0.022021 -0.441512
v -0.331354 0.169735 -0.666108
v -0.118157 0.069889 0.583422
v -0.131698 -0.037622 -0.175569
v -0.134404 0.093368 -0.448265
v -0.148181 0.020027 -0.635329
v -0.594114 0.255431 -0.207998
v -0.037391 0.066267 0.555945
v 0.002936 0.108301 -0.497673
v -0.384929 0.200383 0.281742
v -0.282621 0.082363 0.063994
v -0.333783 0.089647 -0.427539
v -0.317406 0.072031 -0.175568
v -0.384353 0.190359 0.280759
v -0.222282 0.115889 -0.720752
v -0.081755 0.072968 -0.183286
v 0.010381 0.095945 -0.193751
v -0.138031 0.080872 0.281604
v -0.018122 0.075656 0.280179
v 0.028141 0.083240 0.279382
v -0.231489 0.086316 0.284099
v -0.081747 0.001330 0.285256
v -0.260543 0.130188 -0.373383
v -0.578208 0.279755 0.083333
v -0.837322 0.340085 -0.231095
v 0.044609 -0.000274 0.839642
v 0.060796 0.021006 0.857843
v 0.031247 0.061789 0.848791
v -0.019113 0.061417 0.857843
v -0.026658 0.035768 0.839642
v -0.000400 -0.000792 0.856287
vn 0.7070 0.7072 0.0014
vn 0.5197 0.8539 0.0289
vn 0.9130 0.4070 0.0290
vn 0.4840 0.8744 0.0337
vn 0.7340 -0.6784 0.0309
vn -0.2991 -0.8686 -0.3950
vn -0.3869 -0.9219 -0.0217
vn 0.5488 0.8292 -0.1058
vn -0.3323 -0.9188 -0.2130
vn 0.7823 -0.6195 0.0647
vn 0.0058 -0.6967 -0.7173
vn 0.8107 0.5624 0.1630
vn 0.5650 0.8219 0.0729
vn -0.4681 -0.8702 0.1536
vn -0.0499 -0.8484 -0.5270
vn -0.3806 -0.9191 0.1021
vn -0.2167 -0.8713 -0.4404
vn 0.5739 0.8042 -0.1547
vn 0.4838 0.8745 -0.0353
vn -0.0767 -0.7686 -0.6351
vn 0.6279 -0.3370 0.7015
vn 0.1394 0.4887 0.8612
vn -0.3372 -0.9410 -0.0288
vn 0.0031 -0.9991 0.0421
vn 0.6147 0.7880 0.0354
vn -0.2859 -0.9536 0.0943
vn -0.3316 -0.9287 -0.1662
vn 0.4967 0.8652 -0.0693
vn -0.7449 -0.3545 0.5652
vn -0.4997 -0.8606 -0.0984
vn -0.3753 -0.9130 0.1600
vn -0.2494 -0.8942 -0.3717
vn 0.1402 -0.9899 0.0224
vn 0.6973 0.7165 0.0194
vn 0.1036 -0.6227 -0.7756
vn -0.0659 -0.9817 0.1786
vn 0.6354 0.7703 0.0532
vn 0.8535 0.5199 0.0356
vn -0.4341 -0.8776 0.2036
vn -0.3249 -0.9310 0.1664
vn -0.3506 -0.9044 -0.2433
vn -0.3874 -0.9198 -0.0626
vn -0.3127 -0.8545 -0.4148
vn 0.8804 0.4687 0.0721
vn 0.6632 0.7478 0.0308
vn 0.4666 0.8840 -0.0279
vn 0.7895 0.6134 0.0211
vn 0.8902 0.4548 0.0271
vn 0.7205 0.6934 0.0144
vn -0.3381 -0.9286 0.1529
vn -0.3842 -0.9112 0.1484
vn -0.2244 -0.9631 0.1486
vn 0.5893 0.8055 0.0630
vn 0.5163 0.8558 0.0320
vn 0.5179 0.8542 0.0459
vn 0.2151 -0.7620 0.6107
vn -0.3357 -0.8985 0.2828
vn 0.1506 0.9886 0.0014
vn 0.3798 0.9246 0.0289
vn -0.2133 0.9766 0.0290
vn 0.4175 0.9081 0.0337
vn -0.9815 0.1892 0.0309
vn -0.5223 -0.7557 -0.3950
vn -0.5132 -0.8580 -0.0217
vn 0.3426 0.9335 -0.1058
vn -0.5431 -0.8122 -0.2130
vn -0.9627 0.2629 0.0647
vn -0.5646 -0.4083 -0.7173
vn -0.0275 0.9862 0.1630
vn 0.3271 0.9422 0.0729
vn -0.4234 -0.8928 0.1536
vn -0.6538 -0.5430 -0.5270
vn -0.5147 -0.8513 0.1021
vn -0.5734 -0.6909 -0.4403
vn 0.3075 0.9389 -0.1547
vn 0.4176 0.9079 -0.0353
vn -0.5736 -0.5174 -0.6351
vn -0.6436 0.3060 0.7015
vn 0.3110 0.4020 0.8612
vn -0.5580 -0.8293 -0.0288
vn -0.8065 -0.5897 0.0421
vn 0.2703 0.9621 0.0354
vn -0.5987 -0.7954 0.0943
vn -0.5514 -0.8175 -0.1662
vn 0.4024 0.9128 -0.0693
vn 0.1560 -0.8100 0.5652
vn -0.3970 -0.9125 -0.0984
vn -0.5129 -0.8434 0.1600
vn -0.5725 -0.7309 -0.3717
vn -0.8804 -0.4738 0.0224
vn 0.1638 0.9863 0.0194
vn -0.5629 -0.2856 -0.7756
vn -0.7517 -0.6349 0.1786
vn 0.2439 0.9683 0.0532
vn -0.0871 0.9956 0.0356
vn -0.4496 -0.8697 0.2036
vn -0.5573 -0.8135 0.1664
vn -0.5206 -0.8184 -0.2433
vn -0.5112 -0.8572 -0.0626
vn -0.5029 -0.7583 -0.4148
vn -0.1442 0.9869 0.0721
vn 0.2093 0.9774 0.0308
vn 0.4355 0.8998 -0.0279
vn 0.0262 0.9994 0.0211
vn -0.1612 0.9865 0.0271
vn 0.1314 0.9912 0.0144
vn -0.5475 -0.8227 0.1529
vn -0.5062 -0.8495 0.1484
vn -0.6427 -0.7515 0.1486
vn 0.2995 0.9520 0.0630
vn 0.3833 0.9231 0.0320
vn 0.3811 0.9234 0.0459
vn -0.7413 -0.2784 0.6107
vn -0.5247 -0.8029 0.2829
vn 0.7499 -0.6584 0.0647
vn 0.7105 0.7030 0.0316
vn 0.1452 0.9889 0.0316
vn -0.9747 0.2138 0.0647
vn -0.8423 -0.5373 0.0430
vn 0.0665 -0.9969 0.0430
vt 0.750806 0.542394
vt 0.778077 0.407720
vt 0.735464 0.402521
vt 0.714556 0.541620
vt 0.833434 0.397241
vt 0.791665 0.345553
vt 0.707061 0.398672
vt 0.700397 0.541194
vt 0.704332 0.806499
vt 0.696411 0.806451
vt 0.696411 0.998000
vt 0.274308 0.651197
vt 0.266652 0.652015
vt 0.282781 0.844175
vt 0.238227 0.098846
vt 0.204740 0.068883
vt 0.173642 0.090595
vt 0.243655 0.158541
vt 0.178450 0.161372
vt 0.184751 0.237910
vt 0.250218 0.238624
vt 0.899146 0.395275
vt 0.897978 0.484501
vt 0.982120 0.387069
vt 0.259346 0.457035
vt 0.251828 0.469439
vt 0.259702 0.560558
vt 0.267340 0.554503
vt 0.237785 0.048692
vt 0.225432 0.024678
vt 0.200594 0.060325
vt 0.780568 0.235615
vt 0.749666 0.207071
vt 0.710817 0.306926
vt 0.752019 0.323099
vt 0.898836 0.322294
vt 0.231852 0.465098
vt 0.257972 0.380494
vt 0.206811 0.377697
vt 0.167745 0.084980
vt 0.084315 0.150682
vt 0.085457 0.158889
vt 0.192752 0.311011
vt 0.255270 0.310650
vt 0.002000 0.217072
vt 0.007433 0.218305
vt 0.696411 0.183318
vt 0.696411 0.224434
vt 0.833603 0.543190
vt 0.149969 0.377213
vt 0.147373 0.378785
vt 0.229934 0.467163
vt 0.281046 0.238682
vt 0.281085 0.155106
vt 0.281014 0.559211
vt 0.280826 0.466298
vt 0.280969 0.310666
vt 0.281114 0.101068
vt 0.084703 0.236368
vt 0.084986 0.316664
vt 0.281158 0.029998
vt 0.281467 0.651215
vt 0.696411 0.397236
vt 0.696411 0.541133
vt 0.281181 0.002000
vt 0.280825 0.380908
vt 0.696411 0.305455
vt 0.711499 0.715699
vt 0.719675 0.624883
vt 0.696411 0.618891
vt 0.696411 0.712557
vt 0.742944 0.631613
vt 0.815222 0.257128
vt 0.083904 0.317667
vt 0.657359 0.402521
vt 0.614745 0.407720
vt 0.642016 0.542394
vt 0.678266 0.541620
vt 0.559388 0.397241
vt 0.601157 0.345553
vt 0.692425 0.541194
vt 0.685761 0.398672
vt 0.688490 0.806499
vt 0.288624 0.651100
vt 0.296290 0.651814
vt 0.323994 0.098928
vt 0.388560 0.090771
vt 0.357509 0.069013
vt 0.318512 0.158625
vt 0.311868 0.238703
vt 0.377309 0.238136
vt 0.383687 0.161565
vt 0.493676 0.395275
vt 0.410702 0.387069
vt 0.494844 0.484501
vt 0.302275 0.456965
vt 0.294656 0.554417
vt 0.302334 0.560430
vt 0.309828 0.469351
vt 0.324502 0.048768
vt 0.361660 0.060456
vt 0.336888 0.024772
vt 0.612254 0.235615
vt 0.640804 0.323099
vt 0.682005 0.306926
vt 0.643156 0.207071
vt 0.493986 0.322294
vt 0.329757 0.465092
vt 0.354935 0.377883
vt 0.303699 0.380542
vt 0.476628 0.159130
vt 0.477774 0.150922
vt 0.394457 0.085160
vt 0.306669 0.310730
vt 0.369183 0.311276
vt 0.560047 0.217336
vt 0.554612 0.218569
vt 0.559219 0.543190
vt 0.331648 0.467175
vt 0.414467 0.379097
vt 0.411877 0.377518
vt 0.477328 0.236629
vt 0.476966 0.316937
vt 0.681323 0.715699
vt 0.673147 0.624883
vt 0.649878 0.631613
vt 0.577600 0.257128
vt 0.478049 0.317939
s 0
usemtl Material.013
f 48/1/1 3/2/1 45/3/1 49/4/1
f 17/5/2 55/6/2 3/2/2
f 45/3/3 46/7/3 50/8/3 49/4/3
f 14/9/4 39/10/4 2/11/4
f 8/12/5 14/13/5 2/14/5
f 29/15/6 44/16/6 18/17/6
f 21/18/7 41/19/7 42/20/7 26/21/7
f 30/22/8 9/23/8 10/24/8
f 29/15/9 18/17/9 41/19/9 21/18/9
f 7/25/10 31/26/10 100/27/10 99/28/10
f 6/29/11 15/30/11 16/31/11 44/16/11
f 16/32/12 15/33/12 33/34/12 28/35/12
f 30/22/13 10/24/13 1/36/13
f 24/37/14 7/25/14 53/38/14 52/39/14
f 18/17/15 23/40/15 1/41/15 11/42/15
f 42/20/16 40/43/16 4/44/16 26/21/16
f 10/45/17 57/46/17 11/42/17 1/41/17
f 12/47/18 20/48/18 15/33/18
f 36/49/19 17/5/19 3/2/19 48/1/19
f 16/31/20 23/40/20 18/17/20 44/16/20
f 24/37/21 43/50/21 36/51/21 13/52/21
f 13/52/22 31/26/22 24/37/22
f 26/21/23 25/53/23 22/54/23 21/18/23
f 104/55/24 27/56/24 7/25/24 99/28/24
f 45/3/25 3/2/25 55/6/25 28/35/25
f 4/44/26 37/57/26 25/53/26 26/21/26
f 32/58/27 29/15/27 21/18/27 22/54/27
f 17/5/28 36/49/28 9/23/28 30/22/28
f 31/26/29 7/25/29 24/37/29
f 57/46/30 19/59/30 11/42/30
f 40/43/31 42/20/31 19/59/31 56/60/31
f 29/15/32 32/58/32 34/61/32 6/29/32
f 8/12/33 2/14/33 35/62/33
f 46/7/34 47/63/34 51/64/34 50/8/34
f 15/30/35 6/29/35 34/61/35 12/65/35
f 27/56/36 54/66/36 53/38/36 7/25/36
f 20/48/37 38/67/37 33/34/37 15/33/37
f 100/68/38 31/69/38 5/70/38 101/71/38
f 56/60/39 19/59/39 57/46/39
f 24/37/40 52/39/40 43/50/40
f 41/19/41 18/17/41 11/42/41
f 42/20/42 41/19/42 11/42/42 19/59/42
f 6/29/43 44/16/43 29/15/43
f 33/34/44 46/7/44 45/3/44 28/35/44
f 47/63/45 46/7/45 33/34/45 38/67/45
f 13/72/46 36/49/46 48/1/46
f 31/69/47 13/72/47 48/1/47 49/4/47 5/70/47
f 50/8/48 5/70/48 49/4/48
f 5/70/49 50/8/49 51/64/49
f 40/43/50 56/60/50 43/50/50 52/39/50
f 53/38/51 4/44/51 40/43/51 52/39/51
f 54/66/52 37/57/52 4/44/52 53/38/52
f 28/35/53 55/6/53 23/73/53 16/32/53
f 17/5/54 23/73/54 55/6/54
f 30/22/55 1/36/55 23/73/55 17/5/55
f 9/74/56 36/51/56 43/50/56 56/60/56
f 9/74/57 56/60/57 57/46/57 10/45/57
f 89/75/58 59/76/58 91/77/58 92/78/58
f 71/79/59 59/76/59 96/80/59
f 89/75/60 92/78/60 93/81/60 90/82/60
f 68/83/61 2/11/61 39/10/61
f 63/84/62 2/14/62 68/85/62
f 79/86/63 72/87/63 88/88/63
f 74/89/64 77/90/64 86/91/64 85/92/64
f 80/93/65 65/94/65 64/95/65
f 79/86/66 74/89/66 85/92/66 72/87/66
f 62/96/67 103/97/67 102/98/67 81/99/67
f 61/100/68 88/88/68 70/101/68 69/102/68
f 70/103/69 78/104/69 82/105/69 69/106/69
f 80/93/70 58/107/70 65/94/70
f 76/108/71 94/109/71 95/110/71 62/96/71
f 72/87/72 66/111/72 58/112/72 75/113/72
f 86/91/73 77/90/73 60/114/73 84/115/73
f 65/116/74 58/112/74 66/111/74 98/117/74
f 12/47/75 69/106/75 20/48/75
f 83/118/76 91/77/76 59/76/76 71/79/76
f 70/101/77 88/88/77 72/87/77 75/113/77
f 76/108/78 67/119/78 83/120/78 87/121/78
f 67/119/79 76/108/79 81/99/79
f 77/90/80 74/89/80 22/54/80 25/53/80
f 103/97/81 62/96/81 27/56/81 104/55/81
f 78/104/82 96/80/82 59/76/82 89/75/82
f 60/114/83 77/90/83 25/53/83 37/57/83
f 32/58/84 22/54/84 74/89/84 79/86/84
f 71/79/85 80/93/85 64/95/85 83/118/85
f 81/99/86 76/108/86 62/96/86
f 98/117/87 66/111/87 73/122/87
f 84/115/88 97/123/88 73/122/88 86/91/88
f 79/86/89 61/100/89 34/61/89 32/58/89
f 63/84/90 35/62/90 2/14/90
f 90/82/91 93/81/91 51/64/91 47/63/91
f 69/102/92 12/65/92 34/61/92 61/100/92
f 27/56/93 62/96/93 95/110/93 54/66/93
f 20/48/94 69/106/94 82/105/94 38/67/94
f 102/124/95 101/71/95 5/70/95 81/125/95
f 97/123/96 98/117/96 73/122/96
f 76/108/97 87/121/97 94/109/97
f 85/92/98 66/111/98 72/87/98
f 86/91/99 73/122/99 66/111/99 85/92/99
f 61/100/100 79/86/100 88/88/100
f 82/105/101 78/104/101 89/75/101 90/82/101
f 47/63/102 38/67/102 82/105/102 90/82/102
f 67/126/103 91/77/103 83/118/103
f 81/125/104 5/70/104 92/78/104 91/77/104 67/126/104
f 93/81/105 92/78/105 5/70/105
f 5/70/106 51/64/106 93/81/106
f 84/115/107 94/109/107 87/121/107 97/123/107
f 95/110/108 94/109/108 84/115/108 60/114/108
f 54/66/109 95/110/109 60/114/109 37/57/109
f 70/103/110 75/127/110 96/80/110 78/104/110
f 71/79/111 96/80/111 75/127/111
f 80/93/112 71/79/112 75/127/112 58/107/112
f 64/128/113 97/123/113 87/121/113 83/120/113
f 64/128/114 65/116/114 98/117/114 97/123/114
f 99/28/115 100/27/115 14/13/115 8/12/115
f 14/9/116 100/68/116 101/71/116 39/10/116
f 68/83/117 39/10/117 101/71/117 102/124/117
f 103/97/118 63/84/118 68/85/118 102/98/118
f 63/84/119 103/97/119 104/55/119 35/62/119
f 8/12/120 35/62/120 104/55/120 99/28/120
